# xmcd CD database file
#
# Track frame offsets:
#	150
#	12488
#	26029
#	41656
#	56317
#	66637
#	81569
#	93285
#	107819
#	119868
#	134173
#	148397
#	161438
#	175311
#	187201
#
# Disc length: 2684 seconds
#
# Revision: 3
# Processed by: cddbd v1.5.2PL0 Copyright (c) Steve Scherf et al.
# Submitted via: CDex 1.51
#
DISCID=ef0a7a0f
DTITLE=John Lee Hooker - Blues Is The Healer  [CD 05-10]
DYEAR=2005
DGENRE=Blues
TTITLE0=House Rent Boogie
TTITLE1=Wandering Blues
TTITLE2=Questionnaire Blues
TTITLE3=Real Gone Gal
TTITLE4=Feed Her All Night
TTITLE5=My Daddy Was A Jockey
TTITLE6=Little Boy Blues
TTITLE7=How Long Must I Be Your Slave
TTITLE8=Ground Hog
TTITLE9=Mean Old Train
TTITLE10=Catfish
TTITLE11=Do My Baby Think Of Me
TTITLE12=Three Long Year's Ago
TTITLE13=Strike Blues
TTITLE14=Grinder Man
EXTD=YEAR: 2005
EXTT0=
EXTT1=
EXTT2=
EXTT3=
EXTT4=
EXTT5=
EXTT6=
EXTT7=
EXTT8=
EXTT9=
EXTT10=
EXTT11=
EXTT12=
EXTT13=
EXTT14=
PLAYORDER=
